# Blender 4.1.1
# www.blender.org
mtllib tree.mtl
o )Ak_Wood.1
v 0.500000 -0.002536 -0.500000
v 0.500000 -0.002536 0.500000
v -0.500000 -0.002536 0.500000
v -0.500000 -0.002536 -0.500000
v 0.500000 0.997464 -0.500000
v 0.500000 0.997464 0.500000
v -0.500000 0.997464 0.500000
v -0.500000 0.997464 -0.500000
v 0.500000 0.997464 -0.500000
v 0.500000 0.997464 0.500000
v -0.500000 0.997464 0.500000
v -0.500000 0.997464 -0.500000
v 0.500000 1.997464 -0.500000
v 0.500000 1.997464 0.500000
v -0.500000 1.997464 0.500000
v -0.500000 1.997464 -0.500000
v 0.500000 1.997464 -0.500000
v 0.500000 1.997464 0.500000
v -0.500000 1.997464 0.500000
v -0.500000 1.997464 -0.500000
v 0.500000 2.997464 -0.500000
v 0.500000 2.997464 0.500000
v -0.500000 2.997464 0.500000
v -0.500000 2.997464 -0.500000
v 0.500000 2.997464 -0.500000
v 0.500000 2.997464 0.500000
v -0.500000 2.997464 0.500000
v -0.500000 2.997464 -0.500000
v 0.500000 3.997464 -0.500000
v 0.500000 3.997464 0.500000
v -0.500000 3.997464 0.500000
v -0.500000 3.997464 -0.500000
v 0.500000 3.997464 -0.500000
v 0.500000 3.997464 0.500000
v -0.500000 3.997464 0.500000
v -0.500000 3.997464 -0.500000
v 0.500000 4.997464 -0.500000
v 0.500000 4.997464 0.500000
v -0.500000 4.997464 0.500000
v -0.500000 4.997464 -0.500000
vn -0.0000 -1.0000 -0.0000
vn -0.0000 1.0000 -0.0000
vn 1.0000 -0.0000 -0.0000
vn -0.0000 -0.0000 1.0000
vn -1.0000 -0.0000 -0.0000
vn -0.0000 -0.0000 -1.0000
vt 0.375000 0.937500
vt 0.312500 0.937500
vt 0.312500 0.875000
vt 0.375000 0.875000
vt 0.250000 0.937500
vt 0.250000 0.875000
s 0
usemtl Terrain
f 1/1/1 2/2/1 3/3/1 4/4/1
f 5/4/2 8/1/2 7/2/2 6/3/2
f 1/3/3 5/2/3 6/5/3 2/6/3
f 2/3/4 6/2/4 7/5/4 3/6/4
f 3/3/5 7/2/5 8/5/5 4/6/5
f 5/5/6 1/6/6 4/3/6 8/2/6
f 9/1/1 10/2/1 11/3/1 12/4/1
f 13/4/2 16/1/2 15/2/2 14/3/2
f 9/3/3 13/2/3 14/5/3 10/6/3
f 10/3/4 14/2/4 15/5/4 11/6/4
f 11/3/5 15/2/5 16/5/5 12/6/5
f 13/5/6 9/6/6 12/3/6 16/2/6
f 17/1/1 18/2/1 19/3/1 20/4/1
f 21/4/2 24/1/2 23/2/2 22/3/2
f 17/3/3 21/2/3 22/5/3 18/6/3
f 18/3/4 22/2/4 23/5/4 19/6/4
f 19/3/5 23/2/5 24/5/5 20/6/5
f 21/5/6 17/6/6 20/3/6 24/2/6
f 25/1/1 26/2/1 27/3/1 28/4/1
f 29/4/2 32/1/2 31/2/2 30/3/2
f 25/3/3 29/2/3 30/5/3 26/6/3
f 26/3/4 30/2/4 31/5/4 27/6/4
f 27/3/5 31/2/5 32/5/5 28/6/5
f 29/5/6 25/6/6 28/3/6 32/2/6
f 33/1/1 34/2/1 35/3/1 36/4/1
f 37/4/2 40/1/2 39/2/2 38/3/2
f 33/3/3 37/2/3 38/5/3 34/6/3
f 34/3/4 38/2/4 39/5/4 35/6/4
f 35/3/5 39/2/5 40/5/5 36/6/5
f 37/5/6 33/6/6 36/3/6 40/2/6
o )ak_Leaves2
v 1.500000 4.997464 -1.500000
v 1.500000 4.997464 -0.500000
v 0.500000 4.997464 -0.500000
v 0.500000 4.997464 -1.500000
v 1.500000 5.997464 -1.500000
v 1.500000 5.997464 -0.500000
v 0.500000 5.997464 -0.500000
v 0.500000 5.997464 -1.500000
v 0.500000 4.997464 -1.500000
v 0.500000 4.997464 -0.500000
v -0.500000 4.997464 -0.500000
v -0.500000 4.997464 -1.500000
v 0.500000 5.997464 -1.500000
v 0.500000 5.997464 -0.500000
v -0.500000 5.997464 -0.500000
v -0.500000 5.997464 -1.500000
v -0.500000 4.997464 -1.500000
v -0.500000 4.997464 -0.500000
v -1.500000 4.997464 -0.500000
v -1.500000 4.997464 -1.500000
v -0.500000 5.997464 -1.500000
v -0.500000 5.997464 -0.500000
v -1.500000 5.997464 -0.500000
v -1.500000 5.997464 -1.500000
v 1.500000 4.997464 -0.500000
v 1.500000 4.997464 0.500000
v 0.500000 4.997464 0.500000
v 0.500000 4.997464 -0.500000
v 1.500000 5.997464 -0.499999
v 1.500000 5.997464 0.500001
v 0.500000 5.997464 0.500000
v 0.500000 5.997464 -0.500000
v 0.500000 4.997464 -0.500000
v 0.500000 4.997464 0.500000
v -0.500000 4.997464 0.500000
v -0.500000 4.997464 -0.500000
v 0.500000 5.997464 -0.499999
v 0.500000 5.997464 0.500001
v -0.500000 5.997464 0.500000
v -0.500000 5.997464 -0.500000
v -0.500000 4.997464 -0.500000
v -0.500000 4.997464 0.500000
v -1.500000 4.997464 0.500000
v -1.500000 4.997464 -0.500000
v -0.500000 5.997464 -0.499999
v -0.500000 5.997464 0.500001
v -1.500000 5.997464 0.500000
v -1.500000 5.997464 -0.500000
v 1.500000 4.997464 0.500001
v 1.500000 4.997464 1.500001
v 0.500000 4.997464 1.500001
v 0.500000 4.997464 0.500001
v 1.500000 5.997464 0.500001
v 1.500000 5.997464 1.500001
v 0.500000 5.997464 1.500001
v 0.500000 5.997464 0.500001
v 0.500000 4.997464 0.500001
v 0.500000 4.997464 1.500001
v -0.500000 4.997464 1.500001
v -0.500000 4.997464 0.500001
v 0.500000 5.997464 0.500001
v 0.500000 5.997464 1.500001
v -0.500000 5.997464 1.500001
v -0.500000 5.997464 0.500001
v -0.500000 4.997464 0.500001
v -0.500000 4.997464 1.500001
v -1.500000 4.997464 1.500001
v -1.500000 4.997464 0.500001
v -0.500000 5.997464 0.500001
v -0.500000 5.997464 1.500001
v -1.500000 5.997464 1.500001
v -1.500000 5.997464 0.500001
v 0.500000 3.997464 -2.500000
v 0.500000 3.997464 -1.500000
v -0.500000 3.997464 -1.500000
v -0.500000 3.997464 -2.500000
v 0.500000 4.997464 -2.500000
v 0.500000 4.997464 -1.500000
v -0.500000 4.997464 -1.500000
v -0.500000 4.997464 -2.500000
v 0.500000 3.997464 -1.500000
v 0.500000 3.997464 -0.500000
v -0.500000 3.997464 -0.500000
v -0.500000 3.997464 -1.500000
v 0.500000 4.997464 -1.500000
v 0.500000 4.997464 -0.500000
v -0.500000 4.997464 -0.500000
v -0.500000 4.997464 -1.500000
v 0.500000 3.997464 0.500000
v 0.500000 3.997464 1.500000
v -0.500000 3.997464 1.500000
v -0.500000 3.997464 0.500000
v 0.500000 4.997464 0.500000
v 0.500000 4.997464 1.500000
v -0.500000 4.997464 1.500000
v -0.500000 4.997464 0.500000
v 0.500000 3.997464 1.500000
v 0.500000 3.997464 2.500000
v -0.500000 3.997464 2.500000
v -0.500000 3.997464 1.500000
v 0.500000 4.997464 1.500000
v 0.500000 4.997464 2.500000
v -0.500000 4.997464 2.500000
v -0.500000 4.997464 1.500000
v 1.500000 3.997464 -2.500000
v 1.500000 3.997464 -1.500000
v 0.500000 3.997464 -1.500000
v 0.500000 3.997464 -2.500000
v 1.500000 4.997464 -2.500000
v 1.500000 4.997464 -1.500000
v 0.500000 4.997464 -1.500000
v 0.500000 4.997464 -2.500000
v 1.500000 3.997464 -1.500000
v 1.500000 3.997464 -0.500000
v 0.500000 3.997464 -0.500000
v 0.500000 3.997464 -1.500000
v 1.500000 4.997464 -1.500000
v 1.500000 4.997464 -0.500000
v 0.500000 4.997464 -0.500000
v 0.500000 4.997464 -1.500000
v 1.500000 3.997464 -0.500000
v 1.500000 3.997464 0.500000
v 0.500000 3.997464 0.500000
v 0.500000 3.997464 -0.500000
v 1.500000 4.997464 -0.500000
v 1.500000 4.997464 0.500000
v 0.500000 4.997464 0.500000
v 0.500000 4.997464 -0.500000
v 1.500000 3.997464 0.500000
v 1.500000 3.997464 1.500000
v 0.500000 3.997464 1.500000
v 0.500000 3.997464 0.500000
v 1.500000 4.997464 0.500000
v 1.500000 4.997464 1.500000
v 0.500000 4.997464 1.500000
v 0.500000 4.997464 0.500000
v 1.500000 3.997464 1.500000
v 1.500000 3.997464 2.500000
v 0.500000 3.997464 2.500000
v 0.500000 3.997464 1.500000
v 1.500000 4.997464 1.500000
v 1.500000 4.997464 2.500000
v 0.500000 4.997464 2.500000
v 0.500000 4.997464 1.500000
v 2.500000 3.997464 -2.500000
v 2.500000 3.997464 -1.500000
v 1.500000 3.997464 -1.500000
v 1.500000 3.997464 -2.500000
v 2.500000 4.997464 -2.500000
v 2.500000 4.997464 -1.500000
v 1.500000 4.997464 -1.500000
v 1.500000 4.997464 -2.500000
v 2.500000 3.997464 -1.500000
v 2.500000 3.997464 -0.500000
v 1.500000 3.997464 -0.500000
v 1.500000 3.997464 -1.500000
v 2.500000 4.997464 -1.500000
v 2.500000 4.997464 -0.500000
v 1.500000 4.997464 -0.500000
v 1.500000 4.997464 -1.500000
v 2.500000 3.997464 -0.500000
v 2.500000 3.997464 0.500000
v 1.500000 3.997464 0.500000
v 1.500000 3.997464 -0.500000
v 2.500000 4.997464 -0.500000
v 2.500000 4.997464 0.500000
v 1.500000 4.997464 0.500000
v 1.500000 4.997464 -0.500000
v 2.500000 3.997464 0.500000
v 2.500000 3.997464 1.500000
v 1.500000 3.997464 1.500000
v 1.500000 3.997464 0.500000
v 2.500000 4.997464 0.500000
v 2.500000 4.997464 1.500000
v 1.500000 4.997464 1.500000
v 1.500000 4.997464 0.500000
v 2.500000 3.997464 1.500000
v 2.500000 3.997464 2.500000
v 1.500000 3.997464 2.500000
v 1.500000 3.997464 1.500000
v 2.500000 4.997464 1.500000
v 2.500000 4.997464 2.500000
v 1.500000 4.997464 2.500000
v 1.500000 4.997464 1.500000
v -1.500000 3.997464 -2.500000
v -1.500000 3.997464 -1.500000
v -2.500000 3.997464 -1.500000
v -2.500000 3.997464 -2.500000
v -1.500000 4.997464 -2.500000
v -1.500000 4.997464 -1.500000
v -2.500000 4.997464 -1.500000
v -2.500000 4.997464 -2.500000
v -1.500000 3.997464 -1.500000
v -1.500000 3.997464 -0.500000
v -2.500000 3.997464 -0.500000
v -2.500000 3.997464 -1.500000
v -1.500000 4.997464 -1.500000
v -1.500000 4.997464 -0.500000
v -2.500000 4.997464 -0.500000
v -2.500000 4.997464 -1.500000
v -1.500000 3.997464 -0.500000
v -1.500000 3.997464 0.500000
v -2.500000 3.997464 0.500000
v -2.500000 3.997464 -0.500000
v -1.500000 4.997464 -0.500000
v -1.500000 4.997464 0.500000
v -2.500000 4.997464 0.500000
v -2.500000 4.997464 -0.500000
v -1.500000 3.997464 0.500000
v -1.500000 3.997464 1.500000
v -2.500000 3.997464 1.500000
v -2.500000 3.997464 0.500000
v -1.500000 4.997464 0.500000
v -1.500000 4.997464 1.500000
v -2.500000 4.997464 1.500000
v -2.500000 4.997464 0.500000
v -1.500000 3.997464 1.500000
v -1.500000 3.997464 2.500000
v -2.500000 3.997464 2.500000
v -2.500000 3.997464 1.500000
v -1.500000 4.997464 1.500000
v -1.500000 4.997464 2.500000
v -2.500000 4.997464 2.500000
v -2.500000 4.997464 1.500000
v -0.500000 3.997464 -2.500000
v -0.500000 3.997464 -1.500000
v -1.500000 3.997464 -1.500000
v -1.500000 3.997464 -2.500000
v -0.500000 4.997464 -2.500000
v -0.500000 4.997464 -1.500000
v -1.500000 4.997464 -1.500000
v -1.500000 4.997464 -2.500000
v -0.500000 3.997464 -1.500000
v -0.500000 3.997464 -0.500000
v -1.500000 3.997464 -0.500000
v -1.500000 3.997464 -1.500000
v -0.500000 4.997464 -1.500000
v -0.500000 4.997464 -0.500000
v -1.500000 4.997464 -0.500000
v -1.500000 4.997464 -1.500000
v -0.500000 3.997464 -0.500000
v -0.500000 3.997464 0.500000
v -1.500000 3.997464 0.500000
v -1.500000 3.997464 -0.500000
v -0.500000 4.997464 -0.500000
v -0.500000 4.997464 0.500000
v -1.500000 4.997464 0.500000
v -1.500000 4.997464 -0.500000
v -0.500000 3.997464 0.500000
v -0.500000 3.997464 1.500000
v -1.500000 3.997464 1.500000
v -1.500000 3.997464 0.500000
v -0.500000 4.997464 0.500000
v -0.500000 4.997464 1.500000
v -1.500000 4.997464 1.500000
v -1.500000 4.997464 0.500000
v -0.500000 3.997464 1.500000
v -0.500000 3.997464 2.500000
v -1.500000 3.997464 2.500000
v -1.500000 3.997464 1.500000
v -0.500000 4.997464 1.500000
v -0.500000 4.997464 2.500000
v -1.500000 4.997464 2.500000
v -1.500000 4.997464 1.500000
v 1.500000 2.997464 -1.500000
v 1.500000 2.997464 -0.500000
v 0.500000 2.997464 -0.500000
v 0.500000 2.997464 -1.500000
v 1.500000 3.997464 -1.500000
v 1.500000 3.997464 -0.500000
v 0.500000 3.997464 -0.500000
v 0.500000 3.997464 -1.500000
v 0.500000 2.997464 -1.500000
v 0.500000 2.997464 -0.500000
v -0.500000 2.997464 -0.500000
v -0.500000 2.997464 -1.500000
v 0.500000 3.997464 -1.500000
v 0.500000 3.997464 -0.500000
v -0.500000 3.997464 -0.500000
v -0.500000 3.997464 -1.500000
v -0.500000 2.997464 -1.500000
v -0.500000 2.997464 -0.500000
v -1.500000 2.997464 -0.500000
v -1.500000 2.997464 -1.500000
v -0.500000 3.997464 -1.500000
v -0.500000 3.997464 -0.500000
v -1.500000 3.997464 -0.500000
v -1.500000 3.997464 -1.500000
v 1.500000 2.997464 -0.500000
v 1.500000 2.997464 0.500000
v 0.500000 2.997464 0.500000
v 0.500000 2.997464 -0.500000
v 1.500000 3.997464 -0.499999
v 1.500000 3.997464 0.500001
v 0.500000 3.997464 0.500000
v 0.500000 3.997464 -0.500000
v 0.500000 2.997464 -0.500000
v 0.500000 2.997464 0.500000
v -0.500000 2.997464 0.500000
v -0.500000 2.997464 -0.500000
v 0.500000 3.997464 -0.499999
v 0.500000 3.997464 0.500001
v -0.500000 3.997464 0.500000
v -0.500000 3.997464 -0.500000
v -0.500000 2.997464 -0.500000
v -0.500000 2.997464 0.500000
v -1.500000 2.997464 0.500000
v -1.500000 2.997464 -0.500000
v -0.500000 3.997464 -0.499999
v -0.500000 3.997464 0.500001
v -1.500000 3.997464 0.500000
v -1.500000 3.997464 -0.500000
v 1.500000 2.997464 0.500001
v 1.500000 2.997464 1.500001
v 0.500000 2.997464 1.500001
v 0.500000 2.997464 0.500001
v 1.500000 3.997464 0.500001
v 1.500000 3.997464 1.500001
v 0.500000 3.997464 1.500001
v 0.500000 3.997464 0.500001
v 0.500000 2.997464 0.500001
v 0.500000 2.997464 1.500001
v -0.500000 2.997464 1.500001
v -0.500000 2.997464 0.500001
v 0.500000 3.997464 0.500001
v 0.500000 3.997464 1.500001
v -0.500000 3.997464 1.500001
v -0.500000 3.997464 0.500001
v -0.500000 2.997464 0.500001
v -0.500000 2.997464 1.500001
v -1.500000 2.997464 1.500001
v -1.500000 2.997464 0.500001
v -0.500000 3.997464 0.500001
v -0.500000 3.997464 1.500001
v -1.500000 3.997464 1.500001
v -1.500000 3.997464 0.500001
v 0.500000 5.997464 -0.500000
v 0.500000 5.997464 0.500000
v -0.500000 5.997464 0.500000
v -0.500000 5.997464 -0.500000
v 0.500000 6.997464 -0.500000
v 0.500000 6.997464 0.500000
v -0.500000 6.997464 0.500000
v -0.500000 6.997464 -0.500000
vn -0.0000 -1.0000 -0.0000
vn -0.0000 1.0000 -0.0000
vn 1.0000 -0.0000 -0.0000
vn -0.0000 -0.0000 1.0000
vn -1.0000 -0.0000 -0.0000
vn -0.0000 -0.0000 -1.0000
vt 0.125000 1.000000
vt 0.062500 1.000000
vt 0.062500 0.937500
vt 0.125000 0.937500
s 0
usemtl TerrainV2-Transparent
f 41/7/7 42/8/7 43/9/7 44/10/7
f 45/10/8 48/7/8 47/8/8 46/9/8
f 41/10/9 45/7/9 46/8/9 42/9/9
f 42/10/10 46/7/10 47/8/10 43/9/10
f 43/10/11 47/7/11 48/8/11 44/9/11
f 45/8/12 41/9/12 44/10/12 48/7/12
f 49/7/7 50/8/7 51/9/7 52/10/7
f 53/10/8 56/7/8 55/8/8 54/9/8
f 49/10/9 53/7/9 54/8/9 50/9/9
f 50/10/10 54/7/10 55/8/10 51/9/10
f 51/10/11 55/7/11 56/8/11 52/9/11
f 53/8/12 49/9/12 52/10/12 56/7/12
f 57/7/7 58/8/7 59/9/7 60/10/7
f 61/10/8 64/7/8 63/8/8 62/9/8
f 57/10/9 61/7/9 62/8/9 58/9/9
f 58/10/10 62/7/10 63/8/10 59/9/10
f 59/10/11 63/7/11 64/8/11 60/9/11
f 61/8/12 57/9/12 60/10/12 64/7/12
f 65/7/7 66/8/7 67/9/7 68/10/7
f 69/10/8 72/7/8 71/8/8 70/9/8
f 65/10/9 69/7/9 70/8/9 66/9/9
f 66/10/10 70/7/10 71/8/10 67/9/10
f 67/10/11 71/7/11 72/8/11 68/9/11
f 69/8/12 65/9/12 68/10/12 72/7/12
f 73/7/7 74/8/7 75/9/7 76/10/7
f 77/10/8 80/7/8 79/8/8 78/9/8
f 73/10/9 77/7/9 78/8/9 74/9/9
f 74/10/10 78/7/10 79/8/10 75/9/10
f 75/10/11 79/7/11 80/8/11 76/9/11
f 77/8/12 73/9/12 76/10/12 80/7/12
f 81/7/7 82/8/7 83/9/7 84/10/7
f 85/10/8 88/7/8 87/8/8 86/9/8
f 81/10/9 85/7/9 86/8/9 82/9/9
f 82/10/10 86/7/10 87/8/10 83/9/10
f 83/10/11 87/7/11 88/8/11 84/9/11
f 85/8/12 81/9/12 84/10/12 88/7/12
f 89/7/7 90/8/7 91/9/7 92/10/7
f 93/10/8 96/7/8 95/8/8 94/9/8
f 89/10/9 93/7/9 94/8/9 90/9/9
f 90/10/10 94/7/10 95/8/10 91/9/10
f 91/10/11 95/7/11 96/8/11 92/9/11
f 93/8/12 89/9/12 92/10/12 96/7/12
f 97/7/7 98/8/7 99/9/7 100/10/7
f 101/10/8 104/7/8 103/8/8 102/9/8
f 97/10/9 101/7/9 102/8/9 98/9/9
f 98/10/10 102/7/10 103/8/10 99/9/10
f 99/10/11 103/7/11 104/8/11 100/9/11
f 101/8/12 97/9/12 100/10/12 104/7/12
f 105/7/7 106/8/7 107/9/7 108/10/7
f 109/10/8 112/7/8 111/8/8 110/9/8
f 105/10/9 109/7/9 110/8/9 106/9/9
f 106/10/10 110/7/10 111/8/10 107/9/10
f 107/10/11 111/7/11 112/8/11 108/9/11
f 109/8/12 105/9/12 108/10/12 112/7/12
f 113/7/7 114/8/7 115/9/7 116/10/7
f 117/10/8 120/7/8 119/8/8 118/9/8
f 113/10/9 117/7/9 118/8/9 114/9/9
f 114/10/10 118/7/10 119/8/10 115/9/10
f 115/10/11 119/7/11 120/8/11 116/9/11
f 117/8/12 113/9/12 116/10/12 120/7/12
f 121/7/7 122/8/7 123/9/7 124/10/7
f 125/10/8 128/7/8 127/8/8 126/9/8
f 121/10/9 125/7/9 126/8/9 122/9/9
f 122/10/10 126/7/10 127/8/10 123/9/10
f 123/10/11 127/7/11 128/8/11 124/9/11
f 125/8/12 121/9/12 124/10/12 128/7/12
f 129/7/7 130/8/7 131/9/7 132/10/7
f 133/10/8 136/7/8 135/8/8 134/9/8
f 129/10/9 133/7/9 134/8/9 130/9/9
f 130/10/10 134/7/10 135/8/10 131/9/10
f 131/10/11 135/7/11 136/8/11 132/9/11
f 133/8/12 129/9/12 132/10/12 136/7/12
f 137/7/7 138/8/7 139/9/7 140/10/7
f 141/10/8 144/7/8 143/8/8 142/9/8
f 137/10/9 141/7/9 142/8/9 138/9/9
f 138/10/10 142/7/10 143/8/10 139/9/10
f 139/10/11 143/7/11 144/8/11 140/9/11
f 141/8/12 137/9/12 140/10/12 144/7/12
f 145/7/7 146/8/7 147/9/7 148/10/7
f 149/10/8 152/7/8 151/8/8 150/9/8
f 145/10/9 149/7/9 150/8/9 146/9/9
f 146/10/10 150/7/10 151/8/10 147/9/10
f 147/10/11 151/7/11 152/8/11 148/9/11
f 149/8/12 145/9/12 148/10/12 152/7/12
f 153/7/7 154/8/7 155/9/7 156/10/7
f 157/10/8 160/7/8 159/8/8 158/9/8
f 153/10/9 157/7/9 158/8/9 154/9/9
f 154/10/10 158/7/10 159/8/10 155/9/10
f 155/10/11 159/7/11 160/8/11 156/9/11
f 157/8/12 153/9/12 156/10/12 160/7/12
f 161/7/7 162/8/7 163/9/7 164/10/7
f 165/10/8 168/7/8 167/8/8 166/9/8
f 161/10/9 165/7/9 166/8/9 162/9/9
f 162/10/10 166/7/10 167/8/10 163/9/10
f 163/10/11 167/7/11 168/8/11 164/9/11
f 165/8/12 161/9/12 164/10/12 168/7/12
f 169/7/7 170/8/7 171/9/7 172/10/7
f 173/10/8 176/7/8 175/8/8 174/9/8
f 169/10/9 173/7/9 174/8/9 170/9/9
f 170/10/10 174/7/10 175/8/10 171/9/10
f 171/10/11 175/7/11 176/8/11 172/9/11
f 173/8/12 169/9/12 172/10/12 176/7/12
f 177/7/7 178/8/7 179/9/7 180/10/7
f 181/10/8 184/7/8 183/8/8 182/9/8
f 177/10/9 181/7/9 182/8/9 178/9/9
f 178/10/10 182/7/10 183/8/10 179/9/10
f 179/10/11 183/7/11 184/8/11 180/9/11
f 181/8/12 177/9/12 180/10/12 184/7/12
f 185/7/7 186/8/7 187/9/7 188/10/7
f 189/10/8 192/7/8 191/8/8 190/9/8
f 185/10/9 189/7/9 190/8/9 186/9/9
f 186/10/10 190/7/10 191/8/10 187/9/10
f 187/10/11 191/7/11 192/8/11 188/9/11
f 189/8/12 185/9/12 188/10/12 192/7/12
f 193/7/7 194/8/7 195/9/7 196/10/7
f 197/10/8 200/7/8 199/8/8 198/9/8
f 193/10/9 197/7/9 198/8/9 194/9/9
f 194/10/10 198/7/10 199/8/10 195/9/10
f 195/10/11 199/7/11 200/8/11 196/9/11
f 197/8/12 193/9/12 196/10/12 200/7/12
f 201/7/7 202/8/7 203/9/7 204/10/7
f 205/10/8 208/7/8 207/8/8 206/9/8
f 201/10/9 205/7/9 206/8/9 202/9/9
f 202/10/10 206/7/10 207/8/10 203/9/10
f 203/10/11 207/7/11 208/8/11 204/9/11
f 205/8/12 201/9/12 204/10/12 208/7/12
f 209/7/7 210/8/7 211/9/7 212/10/7
f 213/10/8 216/7/8 215/8/8 214/9/8
f 209/10/9 213/7/9 214/8/9 210/9/9
f 210/10/10 214/7/10 215/8/10 211/9/10
f 211/10/11 215/7/11 216/8/11 212/9/11
f 213/8/12 209/9/12 212/10/12 216/7/12
f 217/7/7 218/8/7 219/9/7 220/10/7
f 221/10/8 224/7/8 223/8/8 222/9/8
f 217/10/9 221/7/9 222/8/9 218/9/9
f 218/10/10 222/7/10 223/8/10 219/9/10
f 219/10/11 223/7/11 224/8/11 220/9/11
f 221/8/12 217/9/12 220/10/12 224/7/12
f 225/7/7 226/8/7 227/9/7 228/10/7
f 229/10/8 232/7/8 231/8/8 230/9/8
f 225/10/9 229/7/9 230/8/9 226/9/9
f 226/10/10 230/7/10 231/8/10 227/9/10
f 227/10/11 231/7/11 232/8/11 228/9/11
f 229/8/12 225/9/12 228/10/12 232/7/12
f 233/7/7 234/8/7 235/9/7 236/10/7
f 237/10/8 240/7/8 239/8/8 238/9/8
f 233/10/9 237/7/9 238/8/9 234/9/9
f 234/10/10 238/7/10 239/8/10 235/9/10
f 235/10/11 239/7/11 240/8/11 236/9/11
f 237/8/12 233/9/12 236/10/12 240/7/12
f 241/7/7 242/8/7 243/9/7 244/10/7
f 245/10/8 248/7/8 247/8/8 246/9/8
f 241/10/9 245/7/9 246/8/9 242/9/9
f 242/10/10 246/7/10 247/8/10 243/9/10
f 243/10/11 247/7/11 248/8/11 244/9/11
f 245/8/12 241/9/12 244/10/12 248/7/12
f 249/7/7 250/8/7 251/9/7 252/10/7
f 253/10/8 256/7/8 255/8/8 254/9/8
f 249/10/9 253/7/9 254/8/9 250/9/9
f 250/10/10 254/7/10 255/8/10 251/9/10
f 251/10/11 255/7/11 256/8/11 252/9/11
f 253/8/12 249/9/12 252/10/12 256/7/12
f 257/7/7 258/8/7 259/9/7 260/10/7
f 261/10/8 264/7/8 263/8/8 262/9/8
f 257/10/9 261/7/9 262/8/9 258/9/9
f 258/10/10 262/7/10 263/8/10 259/9/10
f 259/10/11 263/7/11 264/8/11 260/9/11
f 261/8/12 257/9/12 260/10/12 264/7/12
f 265/7/7 266/8/7 267/9/7 268/10/7
f 269/10/8 272/7/8 271/8/8 270/9/8
f 265/10/9 269/7/9 270/8/9 266/9/9
f 266/10/10 270/7/10 271/8/10 267/9/10
f 267/10/11 271/7/11 272/8/11 268/9/11
f 269/8/12 265/9/12 268/10/12 272/7/12
f 273/7/7 274/8/7 275/9/7 276/10/7
f 277/10/8 280/7/8 279/8/8 278/9/8
f 273/10/9 277/7/9 278/8/9 274/9/9
f 274/10/10 278/7/10 279/8/10 275/9/10
f 275/10/11 279/7/11 280/8/11 276/9/11
f 277/8/12 273/9/12 276/10/12 280/7/12
f 281/7/7 282/8/7 283/9/7 284/10/7
f 285/10/8 288/7/8 287/8/8 286/9/8
f 281/10/9 285/7/9 286/8/9 282/9/9
f 282/10/10 286/7/10 287/8/10 283/9/10
f 283/10/11 287/7/11 288/8/11 284/9/11
f 285/8/12 281/9/12 284/10/12 288/7/12
f 289/7/7 290/8/7 291/9/7 292/10/7
f 293/10/8 296/7/8 295/8/8 294/9/8
f 289/10/9 293/7/9 294/8/9 290/9/9
f 290/10/10 294/7/10 295/8/10 291/9/10
f 291/10/11 295/7/11 296/8/11 292/9/11
f 293/8/12 289/9/12 292/10/12 296/7/12
f 297/7/7 298/8/7 299/9/7 300/10/7
f 301/10/8 304/7/8 303/8/8 302/9/8
f 297/10/9 301/7/9 302/8/9 298/9/9
f 298/10/10 302/7/10 303/8/10 299/9/10
f 299/10/11 303/7/11 304/8/11 300/9/11
f 301/8/12 297/9/12 300/10/12 304/7/12
f 305/7/7 306/8/7 307/9/7 308/10/7
f 309/10/8 312/7/8 311/8/8 310/9/8
f 305/10/9 309/7/9 310/8/9 306/9/9
f 306/10/10 310/7/10 311/8/10 307/9/10
f 307/10/11 311/7/11 312/8/11 308/9/11
f 309/8/12 305/9/12 308/10/12 312/7/12
f 313/7/7 314/8/7 315/9/7 316/10/7
f 317/10/8 320/7/8 319/8/8 318/9/8
f 313/10/9 317/7/9 318/8/9 314/9/9
f 314/10/10 318/7/10 319/8/10 315/9/10
f 315/10/11 319/7/11 320/8/11 316/9/11
f 317/8/12 313/9/12 316/10/12 320/7/12
f 321/7/7 322/8/7 323/9/7 324/10/7
f 325/10/8 328/7/8 327/8/8 326/9/8
f 321/10/9 325/7/9 326/8/9 322/9/9
f 322/10/10 326/7/10 327/8/10 323/9/10
f 323/10/11 327/7/11 328/8/11 324/9/11
f 325/8/12 321/9/12 324/10/12 328/7/12
f 329/7/7 330/8/7 331/9/7 332/10/7
f 333/10/8 336/7/8 335/8/8 334/9/8
f 329/10/9 333/7/9 334/8/9 330/9/9
f 330/10/10 334/7/10 335/8/10 331/9/10
f 331/10/11 335/7/11 336/8/11 332/9/11
f 333/8/12 329/9/12 332/10/12 336/7/12
f 337/10/9 341/7/9 342/8/9 338/9/9
f 338/10/10 342/7/10 343/8/10 339/9/10
f 339/10/11 343/7/11 344/8/11 340/9/11
f 341/8/12 337/9/12 340/10/12 344/7/12
f 345/7/7 346/8/7 347/9/7 348/10/7
f 349/10/8 352/7/8 351/8/8 350/9/8
f 345/10/9 349/7/9 350/8/9 346/9/9
f 346/10/10 350/7/10 351/8/10 347/9/10
f 347/10/11 351/7/11 352/8/11 348/9/11
f 349/8/12 345/9/12 348/10/12 352/7/12
f 353/7/7 354/8/7 355/9/7 356/10/7
f 357/10/8 360/7/8 359/8/8 358/9/8
f 353/10/9 357/7/9 358/8/9 354/9/9
f 354/10/10 358/7/10 359/8/10 355/9/10
f 355/10/11 359/7/11 360/8/11 356/9/11
f 357/8/12 353/9/12 356/10/12 360/7/12
f 361/7/7 362/8/7 363/9/7 364/10/7
f 365/10/8 368/7/8 367/8/8 366/9/8
f 361/10/9 365/7/9 366/8/9 362/9/9
f 362/10/10 366/7/10 367/8/10 363/9/10
f 363/10/11 367/7/11 368/8/11 364/9/11
f 365/8/12 361/9/12 364/10/12 368/7/12
f 369/7/7 370/8/7 371/9/7 372/10/7
f 373/10/8 376/7/8 375/8/8 374/9/8
f 369/10/9 373/7/9 374/8/9 370/9/9
f 370/10/10 374/7/10 375/8/10 371/9/10
f 371/10/11 375/7/11 376/8/11 372/9/11
f 373/8/12 369/9/12 372/10/12 376/7/12
f 377/7/7 378/8/7 379/9/7 380/10/7
f 381/10/8 384/7/8 383/8/8 382/9/8
f 377/10/9 381/7/9 382/8/9 378/9/9
f 378/10/10 382/7/10 383/8/10 379/9/10
f 379/10/11 383/7/11 384/8/11 380/9/11
f 381/8/12 377/9/12 380/10/12 384/7/12
